<?xml version="1.0" encoding="utf-8"?>
<!DOCTYPE svg PUBLIC "-//W3C//DTD SVG 1.0//EN" "http://www.w3.org/TR/2001/REC-SVG-20010904/DTD/svg10.dtd">
<svg version="1.0" xmlns="http://www.w3.org/2000/svg" width="621px" height="402px" viewBox="0 0 621 402" preserveAspectRatio="xMidYMid meet">
 <g fill="#0f223e">
  <path d="M264 208 c0 -9.9 -0.4 -18 -0.9 -18 -0.4 0 -3.9 1.1 -7.7 2.5 -10 3.6 -10.3 3 -0.4 -1.1 9.6 -4.1 9.4 -3.9 8.6 -5.2 -0.3 -0.6 -2.7 -0.2 -5.8 0.8 -10.4 3.3 -11.2 3 -2.8 -1.3 l8.5 -4.3 0.3 -47.8 0.2 -47.9 20.3 0.6 c11.1 0.3 21.7 1 23.4 1.5 1.8 0.6 3.5 0.7 3.8 0.3 0.2 -0.5 -3.3 -6.2 -7.9 -12.7 -4.6 -6.5 -8.2 -12.1 -8 -12.3 0.3 -0.4 6.8 4.8 17.2 13.9 9 7.7 21.9 22.4 29.2 33.1 3.4 5 6.9 9.3 7.8 9.6 0.9 0.4 2.2 -0.3 3.4 -1.8 1.1 -1.3 2.6 -3.2 3.3 -4.1 2.4 -2.9 6.8 -2.2 13.4 2.2 3.3 2.2 6.2 4.3 6.4 4.7 0.3 0.5 -1.4 0.6 -3.8 0.5 -6.7 -0.6 -8.1 0.7 -9.5 8.5 -1.5 9.1 -3.3 12.5 -9.2 17.7 -6.1 5.5 -14.1 10 -28.6 16.1 -6.1 2.6 -11.4 5.1 -11.7 5.6 -0.5 0.7 27.7 40.4 37.7 53.2 l2.9 3.7 -12.4 0 -12.5 0 -16.8 -24.1 c-18.4 -26.2 -16.7 -24.7 -24.7 -21.4 l-3.7 1.5 0 22 0 22 -10 0 -10 0 0 -18z m12.8 -29.4 c3.7 -1.8 11.7 -5.5 17.7 -8.1 6.1 -2.7 11.4 -5.2 11.8 -5.6 0.5 -0.4 0.3 -1.8 -0.5 -3.3 l-1.3 -2.5 -10 6.2 c-5.5 3.5 -13.5 8.2 -17.7 10.6 -11.9 6.5 -11.9 8.7 0 2.7z m33.5 -31 c4 -1.9 6.6 -4.1 8.5 -6.9 2.4 -3.7 2.7 -4.9 2.7 -13.2 0 -8.6 -0.2 -9.4 -2.9 -12.9 -4.7 -6.2 -11.8 -8.9 -24 -9 l-10.1 -0.1 -0.3 21.5 c-0.1 11.8 0 22.1 0.3 22.8 0.4 1.1 2.6 1.3 10.3 1 8.2 -0.3 10.7 -0.8 15.5 -3.2z m28.7 -19.6 c0.9 -2.2 0.8 -3.5 -0.4 -6.4 -2.5 -6.1 -5.5 -9.6 -8.1 -9.6 -2.3 0 -2.4 0.1 -0.9 3.5 0.9 2.1 1.4 6.9 1.4 12.7 l0 9.2 3.4 -3.3 c1.9 -1.9 4 -4.6 4.6 -6.1z m25.4 -14.1 c-0.8 -1.4 -3.4 -1.1 -3.4 0.4 0 0.8 0.3 1.7 0.7 2 0.9 0.9 3.4 -1.3 2.7 -2.4z m-46.3 -27.2 c-0.6 -0.8 -0.7 -1.8 -0.3 -2.2 0.4 -0.5 0.2 -0.5 -0.4 -0.2 -0.7 0.4 -1.7 0 -2.4 -0.8 -0.7 -0.8 -1.9 -1.5 -2.7 -1.5 -1.1 0 -0.9 0.7 0.7 3 1.2 1.7 3 3 4.2 3 1.6 0 1.8 -0.3 0.9 -1.3z"/>
 </g>
 <g fill="#daff00">
  <path d="M305.9 161.8 c-1 -1.9 -0.9 -2.4 1.2 -3.7 4.8 -3.2 13.9 -11.2 16.2 -14.3 3.4 -4.6 4.7 -9.1 4.7 -16.2 0 -7.6 -2.9 -14.1 -9.4 -21.4 -4.7 -5.1 -5.1 -6.6 -1.1 -3.9 5.3 3.6 11.8 6.9 11 5.7 -0.5 -0.8 -3.2 -5.1 -6 -9.5 -2.8 -4.4 -5.4 -8.6 -5.9 -9.2 -0.4 -0.8 -0.2 -1.3 0.6 -1.3 1.4 0 12.9 13 19.1 21.6 6.7 9.3 8.3 16.4 5.2 22.4 -0.8 1.6 -4.8 5.7 -8.8 9.1 -3.9 3.4 -7.3 6.6 -7.5 7 -0.2 0.4 1.6 1.3 3.9 1.9 5.3 1.4 4.7 2 -7.8 7.7 -14.8 6.8 -14.1 6.6 -15.4 4.1z"/>
 </g>
</svg>